<svg width="20" height="21" viewBox="0 0 20 21" fill="none" xmlns="http://www.w3.org/2000/svg">
<path d="M1.66406 8.0013C1.66406 6.42964 1.66406 5.64464 2.1524 5.1563C2.64073 4.66797 3.42573 4.66797 4.9974 4.66797H14.9974C16.5691 4.66797 17.3541 4.66797 17.8424 5.1563C18.3307 5.64464 18.3307 6.42964 18.3307 8.0013C18.3307 8.3938 18.3307 8.59047 18.2091 8.71297C18.0866 8.83464 17.8891 8.83464 17.4974 8.83464H2.4974C2.1049 8.83464 1.90823 8.83464 1.78573 8.71297C1.66406 8.59047 1.66406 8.39297 1.66406 8.0013ZM1.66406 15.5013C1.66406 17.073 1.66406 17.858 2.1524 18.3463C2.64073 18.8346 3.42573 18.8346 4.9974 18.8346H14.9974C16.5691 18.8346 17.3541 18.8346 17.8424 18.3463C18.3307 17.858 18.3307 17.073 18.3307 15.5013V11.3346C18.3307 10.9421 18.3307 10.7455 18.2091 10.623C18.0866 10.5013 17.8891 10.5013 17.4974 10.5013H2.4974C2.1049 10.5013 1.90823 10.5013 1.78573 10.623C1.66406 10.7455 1.66406 10.943 1.66406 11.3346V15.5013Z" fill="#777777"/>
<path d="M5.83203 3V5.5M14.1654 3V5.5" stroke="#777777" stroke-width="1.66667" stroke-linecap="round"/>
</svg>
